<svg id="Layer_1" enable-background="new 0 0 64 64" viewBox="0 0 64 64" xmlns="http://www.w3.org/2000/svg"><path d="m11.7900391 50.1328125h3.1708984v10.8671875c0 .3891602.2255859.7431641.5791016.9067383.133789.0625.2783203.0932617.4208984.0932617.2314453 0 .4609375-.0805664.6445312-.2358398l13.7851563-11.6313477h21.8193359c4.9121094 0 8.9091797-3.996582 8.9091797-8.9086914v-30.3154297c0-4.9121094-3.9970703-8.9086914-8.9091797-8.9086914h-40.4199218c-4.9121094 0-8.9091797 3.996582-8.9091797 8.9086914v30.3154297c0 4.9121094 3.9970703 8.9086914 8.9091797 8.9086914zm-6.9091797-39.2241211c0-3.8095703 3.0996094-6.9086914 6.9091797-6.9086914h40.4199219c3.8095703 0 6.9091797 3.0991211 6.9091797 6.9086914v30.3154297c0 3.8095703-3.0996094 6.9086914-6.9091797 6.9086914h-22.1845704c-.2363281 0-.4648438.0834961-.6445312.2358398l-12.4199219 10.4790039v-9.7148438c0-.5522461-.4472656-1-1-1h-4.1708984c-3.8095703 0-6.9091797-3.0991211-6.9091797-6.9086914z"/></svg>